<svg width="40" height="41" viewBox="0 0 40 41" fill="none" xmlns="http://www.w3.org/2000/svg">
<path fill-rule="evenodd" clip-rule="evenodd" d="M19.9998 5.10482C11.7156 5.10482 4.99984 11.8205 4.99984 20.1048C4.99984 28.3891 11.7156 35.1048 19.9998 35.1048C28.2841 35.1048 34.9998 28.3891 34.9998 20.1048C34.9998 11.8205 28.2841 5.10482 19.9998 5.10482ZM1.6665 20.1048C1.6665 9.9796 9.87462 1.77148 19.9998 1.77148C30.1251 1.77148 38.3332 9.9796 38.3332 20.1048C38.3332 30.23 30.1251 38.4381 19.9998 38.4381C9.87462 38.4381 1.6665 30.23 1.6665 20.1048Z" fill="white"/>
<path fill-rule="evenodd" clip-rule="evenodd" d="M19.9998 5.10482C11.7156 5.10482 4.99984 11.8205 4.99984 20.1048C4.99984 28.3891 11.7156 35.1048 19.9998 35.1048C28.2841 35.1048 34.9998 28.3891 34.9998 20.1048C34.9998 11.8205 28.2841 5.10482 19.9998 5.10482ZM26.1783 13.9263C26.8292 14.5772 26.8292 15.6325 26.1783 16.2833L22.3569 20.1048L26.1783 23.9263C26.8292 24.5772 26.8292 25.6325 26.1783 26.2833C25.5275 26.9342 24.4722 26.9342 23.8213 26.2833L19.9998 22.4618L16.1783 26.2833C15.5275 26.9342 14.4722 26.9342 13.8213 26.2833C13.1705 25.6325 13.1705 24.5772 13.8213 23.9263L17.6428 20.1048L13.8213 16.2833C13.1705 15.6325 13.1705 14.5772 13.8213 13.9263C14.4722 13.2754 15.5275 13.2754 16.1783 13.9263L19.9998 17.7478L23.8213 13.9263C24.4722 13.2754 25.5275 13.2754 26.1783 13.9263Z" fill="white"/>
</svg>
