<svg width="54" height="54" viewBox="0 0 54 54" fill="none" xmlns="http://www.w3.org/2000/svg">
<path fill-rule="evenodd" clip-rule="evenodd" d="M27 4.90909C14.7995 4.90909 4.90909 14.7995 4.90909 27C4.90909 39.2005 14.7995 49.0909 27 49.0909C39.2005 49.0909 49.0909 39.2005 49.0909 27C49.0909 14.7995 39.2005 4.90909 27 4.90909ZM0 27C0 12.0883 12.0883 0 27 0C41.9117 0 54 12.0883 54 27C54 41.9117 41.9117 54 27 54C12.0883 54 0 41.9117 0 27Z" fill="white" fill-opacity="0.49"/>
<path fill-rule="evenodd" clip-rule="evenodd" d="M20.9326 15.017C21.7307 14.5899 22.6991 14.6367 23.4523 15.1388L38.1796 24.957C38.8624 25.4122 39.2726 26.1786 39.2726 26.9993C39.2726 27.82 38.8624 28.5864 38.1796 29.0416L23.4523 38.8598C22.6991 39.3619 21.7307 39.4087 20.9326 38.9816C20.1345 38.5545 19.6362 37.7227 19.6362 36.8175V17.1811C19.6362 16.2759 20.1345 15.4441 20.9326 15.017ZM24.5453 21.7675V32.2311L32.3931 26.9993L24.5453 21.7675Z" fill="white" fill-opacity="0.49"/>
</svg>
